<?xml version="1.0" standalone="no"?>
<!DOCTYPE svg PUBLIC "-//W3C//DTD SVG 20010904//EN"
 "http://www.w3.org/TR/2001/REC-SVG-20010904/DTD/svg10.dtd">
<svg version="1.0" xmlns="http://www.w3.org/2000/svg"
 width="1280.000000pt" height="960.000000pt" viewBox="0 0 1280.000000 960.000000"
 preserveAspectRatio="xMidYMid meet">
<metadata>
Created by potrace 1.15, written by Peter Selinger 2001-2017
</metadata>
<g transform="translate(0.000000,960.000000) scale(0.100000,-0.100000)"
fill="#8bc34a" stroke="none">
<path d="M11166 9582 c12 -9 31 -35 42 -57 11 -22 32 -51 47 -65 15 -14 42
-47 59 -75 74 -113 183 -221 320 -314 36 -25 45 -36 35 -42 -8 -4 -92 -37
-187 -74 -94 -36 -220 -90 -278 -120 -58 -30 -136 -64 -174 -77 -38 -12 -68
-23 -66 -25 6 -6 165 23 361 66 99 22 181 38 183 37 5 -5 -125 -80 -228 -131
-172 -86 -254 -139 -333 -214 -42 -41 -75 -76 -72 -79 3 -3 13 2 23 11 10 9
58 23 107 32 66 11 120 30 210 72 104 49 362 163 405 180 8 3 -3 -10 -25 -28
-217 -185 -421 -401 -550 -585 -38 -54 -110 -141 -160 -193 -49 -51 -80 -89
-68 -82 12 6 108 101 215 212 106 110 216 217 243 237 28 20 126 100 218 177
93 77 173 142 178 144 6 2 -27 -35 -74 -82 -247 -249 -411 -448 -504 -609 -24
-40 -51 -84 -60 -98 -23 -31 -21 -30 141 87 71 51 135 93 143 93 7 0 12 5 10
11 -2 12 123 103 131 94 9 -8 -42 -75 -58 -75 -11 0 -12 -2 -2 -8 9 -6 2 -23
-28 -63 -40 -54 -92 -152 -105 -199 -11 -39 6 -17 55 72 l45 80 189 114 c104
63 190 113 191 112 1 -2 -5 -25 -13 -52 -11 -38 -31 -66 -93 -129 -43 -44 -79
-81 -79 -83 0 -1 26 13 57 32 31 19 60 34 65 34 4 0 -1 -21 -11 -47 -46 -114
-102 -244 -135 -315 -19 -43 -34 -78 -32 -78 2 0 18 24 34 54 17 29 54 81 82
115 84 100 176 244 241 372 48 97 71 131 116 172 31 29 80 81 109 116 52 62
196 171 202 153 1 -5 -29 -56 -67 -114 -73 -110 -117 -152 -238 -233 -75 -49
-86 -59 -55 -48 69 26 274 174 366 266 l60 59 30 -34 c144 -161 186 -213 186
-229 0 -10 -18 -83 -40 -161 -46 -163 -38 -153 -202 -264 -54 -36 -98 -68 -98
-71 0 -2 3 -2 8 0 108 64 226 127 229 123 7 -7 -35 -204 -62 -292 -13 -43 -23
-80 -21 -81 6 -6 104 150 122 192 9 22 23 62 31 90 8 27 31 68 52 91 20 23 53
71 74 107 21 36 48 74 59 84 19 17 20 17 38 -5 16 -19 18 -35 13 -120 l-5 -97
-125 -220 c-106 -186 -175 -297 -252 -406 -7 -10 -9 -19 -3 -19 13 0 122 129
256 304 l107 138 -2 -140 c-1 -77 2 -145 6 -151 3 -6 -3 -27 -15 -47 -12 -19
-20 -37 -17 -40 9 -9 77 122 76 147 0 18 -4 13 -16 -19 -23 -65 -25 -45 -3 29
19 62 20 100 20 1182 0 614 -2 1117 -4 1117 -3 0 -38 -13 -79 -30 -95 -38
-108 -38 -72 0 l29 31 -119 -3 -120 -3 -6 -35 c-4 -19 -19 -57 -33 -84 -14
-27 -26 -55 -26 -62 0 -8 -12 -43 -27 -79 l-27 -66 -27 53 c-37 75 -53 150
-45 219 l6 59 -295 0 c-295 0 -296 0 -344 -25 l-49 -24 -16 24 -16 25 -193 0
c-184 0 -191 -1 -171 -18z m713 -114 c12 -40 40 -120 62 -177 21 -58 37 -106
35 -108 -2 -3 -42 23 -88 56 -45 34 -100 73 -122 88 -41 30 -146 139 -146 152
0 5 24 11 53 14 29 4 77 15 107 26 30 11 60 20 65 20 6 1 21 -32 34 -71z m766
23 c-58 -26 -101 -66 -162 -149 -30 -40 -57 -71 -59 -69 -9 9 88 183 117 210
25 23 38 27 87 27 l57 0 -40 -19z m-469 -908 c6 -22 2 -31 -26 -55 -19 -15
-36 -25 -39 -23 -6 7 41 105 51 105 4 0 11 -12 14 -27z m-224 -59 c-16 -27
-50 -91 -77 -142 -41 -81 -58 -102 -124 -158 -42 -35 -80 -64 -84 -64 -5 0 5
17 21 38 16 20 68 92 115 160 85 120 168 224 175 218 1 -2 -10 -25 -26 -52z
m-318 -316 c-52 -89 -99 -147 -136 -169 -32 -18 -19 6 33 61 29 30 63 70 77
88 24 32 40 44 26 20z m-164 -218 c-25 -22 -49 -40 -53 -40 -16 0 38 59 63 69
39 15 38 13 -10 -29z m1151 -67 c-9 -16 -10 -16 -11 -1 0 9 3 25 7 35 7 16 8
17 11 1 2 -10 -1 -25 -7 -35z m-36 -124 l-15 -44 6 40 c6 41 13 59 20 52 2 -2
-3 -23 -11 -48z"/>
<path d="M11358 7993 c7 -3 16 -2 19 1 4 3 -2 6 -13 5 -11 0 -14 -3 -6 -6z"/>
<path d="M200 7894 c-6 -16 -54 -127 -106 -246 l-94 -216 2 -286 3 -286 83
101 c46 55 85 99 88 97 9 -10 -89 -165 -131 -208 l-45 -46 0 -264 c0 -205 3
-261 12 -252 24 24 29 11 9 -22 -21 -33 -21 -45 -21 -394 l1 -361 57 -11 c116
-23 116 -24 129 -64 15 -45 8 -86 -16 -86 -9 1 -51 9 -94 19 l-77 18 0 -37 0
-37 103 -17 c137 -23 237 -46 237 -55 0 -4 10 -7 22 -6 17 1 23 9 26 36 5 44
29 149 36 157 3 3 20 1 38 -4 25 -7 34 -16 36 -36 4 -30 32 -61 32 -35 0 9 4
18 10 22 5 3 7 -13 3 -43 -3 -33 -1 -52 6 -57 17 -10 39 12 46 46 7 32 21 36
50 15 12 -8 16 -20 13 -34 -6 -22 16 -39 27 -22 11 18 25 10 25 -15 0 -30 20
-33 27 -5 13 48 43 8 43 -57 0 -39 4 -53 14 -53 8 0 21 -3 29 -6 12 -4 18 5
25 38 9 37 11 40 17 21 8 -25 16 -28 31 -13 7 7 19 8 37 1 21 -8 27 -17 27
-39 0 -59 13 -123 24 -119 6 2 13 31 16 65 l5 61 80 -38 c44 -21 86 -45 94
-54 20 -25 34 -21 27 8 -4 14 -4 25 -1 25 3 0 65 -40 138 -88 72 -49 149 -97
170 -107 76 -35 62 -12 -102 178 -60 70 -81 101 -72 106 9 6 2 15 -24 31 -65
40 -29 32 61 -14 49 -24 150 -90 224 -145 201 -150 202 -140 4 69 -86 90 -141
156 -134 158 8 3 58 -18 113 -47 55 -28 102 -50 103 -48 2 2 -71 61 -161 131
-91 70 -165 130 -165 132 0 11 50 -24 144 -100 55 -46 171 -135 256 -199 127
-95 169 -133 228 -207 69 -85 99 -111 85 -72 -5 14 -3 15 8 5 21 -20 32 -15
27 12 -4 19 -2 23 7 15 9 -7 16 -6 25 5 11 14 10 37 -7 82 -5 15 -1 13 20 -6
30 -27 36 -13 12 29 -21 36 -18 43 10 24 13 -8 61 -67 105 -131 45 -63 84
-112 87 -110 2 3 -16 54 -41 113 -48 114 -55 150 -12 65 15 -28 46 -85 71
-127 25 -42 45 -81 45 -87 -1 -26 -148 -116 -191 -117 -24 0 -131 -46 -191
-81 -29 -18 -143 -77 -253 -132 -110 -55 -247 -126 -305 -157 -58 -32 -143
-74 -190 -94 -47 -20 -106 -52 -133 -72 -41 -30 -46 -37 -37 -54 6 -11 17 -20
24 -20 7 0 23 -11 36 -25 27 -28 49 -31 88 -11 29 15 119 10 255 -15 31 -5 81
-9 110 -8 116 4 570 -13 593 -21 13 -5 24 -14 24 -20 0 -14 33 -13 48 2 6 6
48 12 97 13 81 2 88 0 127 -28 l41 -29 -7 -117 c-3 -64 -10 -429 -16 -811 -5
-382 -12 -861 -15 -1065 -3 -203 -8 -405 -11 -447 -6 -71 -8 -77 -33 -87 -14
-6 -80 -10 -147 -9 -67 0 -125 -2 -130 -5 -5 -3 -56 1 -114 9 -58 8 -114 14
-125 14 -96 -3 -122 -2 -520 16 -77 4 -158 5 -180 4 -41 -3 -68 -2 -255 6
-143 6 -167 8 -176 17 -4 4 -17 1 -28 -6 -13 -8 -45 -13 -81 -12 -251 9 -573
-1 -650 -21 -19 -5 -25 -2 -25 10 0 19 -31 21 -48 4 -9 -9 -12 -179 -12 -705
l0 -693 6400 0 6400 0 0 743 0 743 -67 -3 c-38 -1 -125 -4 -194 -6 -70 -3
-131 -7 -136 -10 -6 -4 -124 -7 -263 -8 -209 0 -257 -3 -277 -16 -14 -9 -33
-13 -49 -9 -14 4 -52 -1 -85 -10 -44 -12 -76 -15 -122 -9 -34 4 -87 8 -117 10
-31 2 -67 8 -80 13 -14 5 -50 7 -80 5 -30 -2 -203 -5 -385 -8 -181 -2 -425 -7
-542 -12 -116 -5 -238 -6 -270 -3 -70 8 -171 6 -235 -5 -55 -9 -51 -17 -49
110 1 46 -3 80 -14 99 -13 25 -14 97 -10 595 3 311 10 714 15 895 6 181 10
437 10 568 l0 237 33 17 c17 9 38 21 46 27 19 16 101 15 101 0 0 -18 45 -16
60 2 17 21 28 19 32 -7 4 -32 26 -34 38 -3 9 23 12 25 32 13 27 -15 96 -20
103 -8 3 4 14 6 25 3 12 -3 20 0 20 7 0 15 68 4 90 -15 24 -20 126 -27 141 -8
13 14 18 14 100 -3 16 -4 30 0 38 10 11 13 17 14 28 4 29 -24 127 -28 211 -10
44 10 58 9 82 -3 37 -19 94 -19 110 0 10 12 15 13 28 3 12 -10 16 -10 19 0 3
6 11 12 19 12 8 0 17 7 20 15 3 8 20 19 38 25 18 6 39 21 46 34 16 31 6 72
-20 79 -11 3 -75 38 -142 78 -163 98 -442 226 -527 243 -19 3 -82 33 -140 65
-58 32 -173 90 -256 127 -160 73 -273 139 -344 201 -64 56 -76 58 -115 20 -18
-17 -55 -40 -82 -51 -58 -22 -243 -121 -404 -217 -67 -39 -157 -82 -215 -102
-93 -33 -216 -91 -310 -147 -22 -13 -67 -38 -100 -55 -33 -17 -99 -57 -147
-88 -48 -31 -98 -62 -112 -69 -35 -15 -32 -28 11 -60 40 -30 55 -33 99 -18 20
7 45 7 79 0 28 -6 77 -16 110 -21 33 -5 70 -15 83 -21 18 -9 28 -9 42 0 24 14
66 16 75 2 6 -10 80 -9 90 2 4 3 20 2 37 -4 21 -7 37 -7 53 0 13 6 26 8 29 4
4 -3 61 -7 127 -8 110 -2 122 -4 136 -23 18 -27 39 -27 53 0 10 18 20 20 93
18 61 -1 95 -8 132 -25 83 -38 88 -45 81 -106 -3 -29 -11 -379 -16 -778 -17
-1271 -27 -1645 -45 -1660 -8 -6 -66 -11 -141 -11 -81 0 -147 -6 -178 -15 -55
-15 -122 -19 -130 -6 -3 5 -29 4 -58 -1 -29 -5 -91 -11 -138 -13 -47 -2 -148
-6 -224 -9 -76 -3 -145 -9 -153 -14 -8 -4 -37 -2 -65 5 -53 14 -127 10 -166
-9 -17 -8 -31 -8 -55 1 -22 7 -95 9 -227 6 -107 -3 -206 -5 -220 -5 -54 2
-458 -5 -520 -9 -8 -1 -53 2 -100 6 -47 4 -96 7 -110 6 -14 0 -102 -1 -195 -1
-123 -1 -178 -6 -197 -15 -22 -12 -30 -12 -45 -1 -13 9 -39 12 -90 9 -40 -3
-78 -2 -85 2 -11 7 -196 7 -395 1 l-103 -4 0 65 c0 62 -1 64 -31 75 l-31 12 6
100 c4 55 7 125 7 155 0 60 13 554 29 1065 5 176 12 498 15 715 3 217 10 485
16 594 5 109 9 245 9 302 0 56 3 109 6 118 9 22 31 20 44 -4 7 -13 16 -18 23
-13 12 7 17 9 36 12 5 0 12 14 16 30 14 63 62 59 90 -6 9 -22 21 -33 34 -33
11 0 23 -4 26 -10 12 -20 25 -9 25 20 0 38 26 41 42 5 15 -32 67 -36 75 -5 3
11 10 20 15 20 5 0 6 5 2 12 -4 7 -3 8 4 4 6 -4 14 -21 17 -39 7 -33 48 -73
65 -62 5 3 7 19 3 35 -6 33 7 39 27 15 7 -8 21 -15 32 -15 14 0 18 5 14 15 -7
19 8 20 23 1 17 -21 137 -21 145 0 3 8 11 12 17 9 11 -7 146 -17 232 -18 26 0
47 -4 47 -8 0 -17 40 -9 60 11 11 11 26 17 35 14 8 -3 28 -1 45 4 16 6 32 7
35 3 13 -22 155 10 155 34 0 9 6 12 15 9 8 -4 23 -3 33 2 26 12 85 13 100 1 9
-7 18 -4 33 12 17 18 23 19 42 9 12 -7 33 -14 47 -15 14 -1 43 -5 66 -8 36 -6
44 -4 66 20 21 23 29 25 46 16 31 -17 57 -13 95 12 49 32 84 120 56 141 -8 6
-25 26 -38 44 -24 35 -94 72 -136 72 -28 0 -85 28 -185 91 -36 23 -92 55 -125
72 -33 16 -82 44 -110 62 -71 46 -159 90 -235 118 -36 14 -89 36 -118 51 -28
14 -59 26 -69 26 -10 0 -34 11 -54 24 -19 13 -69 42 -110 64 -137 72 -285 157
-311 178 -14 11 -62 53 -106 93 -59 54 -78 78 -75 92 3 10 9 16 13 14 5 -3 10
7 12 22 2 16 8 28 15 28 6 0 15 3 19 8 4 4 2 7 -5 7 -7 0 -9 4 -6 10 3 5 1 19
-5 31 -11 20 -2 42 18 45 54 7 57 62 7 108 -19 18 -35 38 -35 46 0 10 -14 11
-62 5 -35 -4 -81 -9 -103 -11 -22 -2 -60 -9 -84 -15 -33 -10 -57 -10 -105 0
-85 16 -126 20 -126 11 0 -5 -8 -6 -18 -3 -12 3 -30 -10 -54 -36 -20 -23 -42
-41 -48 -41 -6 0 -10 -10 -9 -22 4 -30 -8 -48 -30 -48 -10 0 -24 -7 -31 -15
-10 -12 -9 -15 4 -15 14 0 15 -4 6 -20 -9 -16 -8 -20 5 -20 18 0 19 -20 3 -55
-15 -34 -78 -72 -236 -144 -73 -33 -145 -69 -160 -79 -15 -11 -85 -50 -157
-87 -71 -36 -150 -77 -175 -90 -98 -51 -412 -195 -427 -195 -5 0 -42 -21 -83
-46 -41 -26 -93 -55 -115 -66 -49 -23 -63 -31 -141 -85 -34 -24 -86 -54 -117
-68 -64 -30 -139 -93 -143 -121 -2 -10 -6 -33 -10 -49 -5 -26 1 -38 36 -78 23
-26 48 -47 56 -47 8 0 33 14 56 30 22 17 53 30 68 30 38 0 89 19 112 42 11 11
26 17 35 14 8 -3 19 -6 24 -6 5 0 9 -7 9 -15 0 -8 9 -15 20 -15 12 0 29 -14
42 -35 31 -48 57 -53 122 -21 58 28 71 32 61 16 -18 -29 47 -54 73 -28 9 9 12
7 12 -10 0 -26 26 -39 49 -25 11 7 36 6 79 -3 56 -11 67 -11 87 2 16 11 29 13
42 6 25 -12 156 -7 161 7 5 16 21 13 49 -9 14 -11 29 -17 34 -14 5 3 9 0 9 -7
0 -7 12 -9 38 -5 108 19 108 19 137 -8 19 -18 39 -26 64 -26 21 0 42 -5 49
-12 7 -7 46 -11 104 -11 51 1 102 -4 112 -9 15 -8 23 -6 36 12 12 16 24 21 38
18 13 -4 29 2 41 13 19 18 23 19 51 4 l30 -16 0 -177 c0 -209 -16 -697 -30
-937 -5 -93 -12 -296 -15 -450 -3 -154 -10 -377 -15 -495 -5 -118 -15 -341
-20 -495 -10 -278 -25 -510 -38 -615 l-7 -54 -175 -1 c-105 -1 -191 3 -215 10
-43 12 -122 9 -131 -6 -7 -13 -89 -10 -224 6 -86 10 -135 11 -195 3 -44 -5
-105 -7 -135 -4 -30 3 -125 5 -210 5 -182 -1 -177 -1 -391 4 -91 2 -171 7
-178 11 -7 5 -18 3 -24 -3 -14 -14 -104 -14 -113 0 -5 9 -56 10 -183 5 -97 -3
-192 -9 -211 -12 -19 -3 -102 -4 -185 -3 -180 3 -217 5 -420 24 -39 3 -82 2
-95 -3 -43 -16 -50 -6 -50 69 0 66 -1 69 -26 75 l-27 7 6 556 c4 306 11 723
16 926 5 204 13 486 17 628 l7 259 41 30 41 30 145 -7 c80 -3 156 -6 170 -5
51 1 205 8 210 10 3 1 28 3 55 5 28 2 78 6 112 10 50 6 68 4 88 -9 31 -20 54
-20 76 0 13 12 26 14 46 8 36 -10 233 -5 255 7 9 5 65 11 125 14 95 4 110 8
126 27 26 31 18 50 -33 77 -25 13 -108 61 -185 107 -125 74 -198 108 -368 175
-79 31 -97 47 -96 83 1 17 3 23 6 14 8 -31 22 -19 17 15 -13 98 -24 190 -24
200 0 7 13 -26 29 -73 34 -98 69 -180 78 -180 13 0 -10 136 -57 334 -64 267
-109 414 -120 396 -7 -11 -11 -7 -20 14 -15 40 -4 69 23 62 12 -3 31 -6 42 -7
13 0 8 -4 -12 -10 -18 -5 -33 -14 -33 -20 0 -6 8 -8 18 -5 10 4 44 -3 76 -14
98 -33 456 -93 686 -115 144 -13 -6 30 -310 90 -102 20 -200 39 -218 43 -19 4
82 8 223 9 142 0 278 4 304 8 43 7 44 8 19 15 -15 5 -94 14 -175 20 -185 16
-213 25 -102 34 110 8 241 27 258 36 16 8 -78 17 -282 26 -81 4 -146 8 -144
10 1 2 34 8 72 14 95 14 285 61 281 69 -2 3 -87 3 -188 -2 -100 -4 -190 -6
-198 -4 -8 1 26 10 75 20 129 25 265 59 265 66 0 3 -64 3 -142 0 -79 -3 -145
-4 -147 -2 -5 3 -1 4 129 40 94 25 101 28 65 31 -49 4 -297 -22 -460 -49 -148
-24 -229 -44 -306 -75 -32 -13 -70 -24 -84 -24 -26 0 -75 26 -75 39 0 4 42 13
93 20 133 18 251 45 406 92 143 43 404 139 398 145 -8 8 -235 -27 -370 -57
-76 -17 -141 -28 -144 -25 -4 3 -1 6 5 6 7 0 79 27 160 59 240 96 347 152 231
120 -51 -13 -219 -49 -234 -49 -5 0 40 22 100 48 119 52 157 71 138 72 -12 0
-260 -55 -297 -66 -35 -10 -5 11 39 29 75 29 218 97 213 102 -2 2 -26 -2 -54
-10 -27 -8 -137 -40 -244 -70 -290 -81 -472 -148 -609 -222 -83 -46 -83 -46
-117 -30 -44 21 -43 34 4 47 205 56 507 181 730 301 196 106 223 121 220 125
-6 6 -314 -100 -499 -172 -94 -36 -173 -63 -176 -60 -4 3 -2 6 3 6 25 0 591
347 581 356 -8 8 -499 -212 -606 -272 -63 -35 -62 -23 1 16 133 81 522 359
514 367 -2 2 -41 -14 -86 -37 -45 -23 -84 -39 -86 -37 -2 2 23 23 57 48 33 24
57 45 52 46 -11 4 -367 -177 -498 -252 -153 -88 -311 -194 -400 -268 -44 -37
-86 -67 -93 -67 -15 0 -72 28 -72 35 0 3 33 21 73 41 121 61 199 109 353 220
217 154 561 430 551 441 -6 5 -156 -78 -315 -174 -68 -42 -125 -74 -127 -72
-1 2 49 48 113 101 150 124 244 209 238 215 -8 8 -244 -135 -444 -269 -57 -38
-105 -68 -107 -66 -2 2 42 43 98 92 156 135 387 349 383 353 -2 2 -67 -37
-145 -88 -78 -50 -143 -90 -145 -88 -2 2 46 49 105 104 105 97 139 138 80 96
-40 -28 -50 -26 -21 4 13 14 21 25 17 25 -11 0 -275 -158 -417 -249 -74 -48
-148 -95 -165 -106 -16 -10 6 15 50 56 136 125 400 382 404 392 3 9 -277 -178
-349 -233 -147 -111 -141 -100 53 102 108 113 197 208 197 212 0 3 -68 -44
-150 -104 -83 -61 -154 -110 -157 -110 -4 0 24 33 62 73 139 143 169 177 160
177 -15 0 -352 -248 -510 -375 -256 -205 -422 -369 -510 -502 -29 -46 -56 -54
-89 -30 -17 12 -11 19 67 80 168 132 479 464 763 815 54 68 106 134 114 145
14 21 14 21 -5 6 -11 -8 -56 -47 -100 -85 -44 -38 -138 -115 -210 -171 -71
-56 -172 -136 -222 -178 -51 -42 -93 -73 -93 -70 0 3 57 74 128 158 70 83 164
199 209 257 45 58 94 120 108 138 15 17 24 32 20 32 -16 0 -395 -352 -570
-531 -110 -112 -191 -192 -180 -178 255 335 346 452 459 592 133 164 162 205
111 157 -36 -34 -43 -17 -10 25 58 77 12 40 -101 -80 -66 -69 -142 -143 -171
-165 -109 -84 -440 -355 -485 -398 -62 -60 -61 -46 1 26 51 60 291 356 376
463 28 35 71 87 97 116 27 29 48 58 48 64 0 6 12 27 27 47 38 50 11 30 -102
-79 -146 -139 -190 -178 -395 -344 -205 -167 -405 -355 -521 -490 -58 -68 -77
-83 -129 -104 -34 -13 -63 -22 -65 -20 -2 2 24 38 57 79 33 41 97 129 141 195
44 66 115 163 157 215 73 90 331 439 470 635 35 50 68 96 73 103 29 38 -16 -4
-139 -128 -75 -77 -139 -138 -142 -136 -4 4 135 267 165 313 9 13 11 23 6 23
-9 0 -134 -154 -243 -300 -66 -89 -89 -116 -75 -90 16 28 88 135 137 201 55
77 62 95 17 53 -72 -68 -442 -469 -524 -569 -94 -114 -135 -158 -142 -151 -3
2 33 64 80 138 128 203 452 766 445 773 -3 4 -20 -16 -234 -280 -162 -199
-212 -265 -286 -374 -49 -73 -246 -286 -255 -277 -4 3 41 100 67 146 8 14 15
30 16 35 1 6 39 96 84 200 45 105 108 258 140 340 32 83 75 188 94 233 20 46
36 85 36 86 0 1 -8 2 -18 3 -12 1 -43 -38 -101 -128 -45 -71 -84 -129 -86
-129 -5 0 77 184 111 251 13 27 21 49 17 49 -5 0 -136 -192 -293 -426 -157
-234 -291 -430 -298 -436 -22 -19 -14 7 47 146 33 75 96 231 142 348 45 117
90 231 101 253 17 36 17 38 1 19 -10 -11 -26 -31 -35 -45 -15 -20 -15 -16 2
29 11 29 30 72 41 95 42 83 -11 7 -226 -324 -190 -295 -228 -347 -306 -425
-76 -76 -88 -84 -79 -57 7 17 18 37 26 44 7 6 12 15 9 19 -3 4 23 68 56 141
34 74 69 154 79 179 10 25 57 129 104 233 84 186 97 228 37 121 -47 -83 -213
-335 -218 -331 -2 2 17 46 41 98 67 140 65 155 -6 47 -35 -53 -67 -100 -71
-104 -10 -10 -2 29 59 276 49 201 60 263 34 194z m79 -1131 c-38 -85 -72 -140
-77 -125 -5 17 88 192 103 192 2 0 -9 -30 -26 -67z m413 -5 c-32 -47 -69 -84
-77 -77 -2 3 19 33 47 67 57 70 76 76 30 10z m351 -14 c-80 -127 -180 -258
-215 -280 -22 -14 -42 -24 -44 -22 -2 2 27 38 64 79 37 42 98 117 137 167 67
88 95 114 58 56z m-265 -121 c-25 -32 -68 -93 -97 -135 -44 -66 -71 -94 -71
-73 0 11 202 276 207 271 3 -2 -15 -31 -39 -63z m-199 -57 c-27 -50 -133 -155
-145 -143 -11 10 49 93 104 144 32 29 60 52 64 53 3 0 -7 -24 -23 -54z m-429
-85 c0 -12 -83 -91 -89 -85 -4 4 78 94 86 94 2 0 3 -4 3 -9z m1518 -108 c-51
-66 -146 -206 -154 -228 -9 -23 13 -18 52 11 19 15 34 23 34 19 0 -12 -58 -74
-63 -68 -3 3 -23 6 -44 7 -21 2 -48 3 -60 4 -37 3 -25 24 47 84 37 32 103 97
147 146 43 49 80 87 82 85 2 -1 -16 -29 -41 -60z m-1446 -5 c-7 -7 -12 -8 -12
-2 0 14 12 26 19 19 2 -3 -1 -11 -7 -17z m953 -15 c-62 -96 -68 -102 -144
-128 -41 -13 -76 -23 -78 -21 -3 2 35 32 84 66 48 35 101 74 116 86 37 31 43
30 22 -3z m-717 -27 c-16 -31 -142 -136 -163 -136 -18 0 -19 11 -2 33 16 21
170 138 175 133 2 -2 -2 -16 -10 -30z m821 15 c-8 -10 -42 -55 -77 -100 -57
-74 -65 -81 -90 -75 -15 4 -28 8 -30 9 -1 1 33 31 75 67 43 36 89 78 102 92
28 30 40 34 20 7z m91 -88 c-75 -110 -75 -110 -111 -105 l-32 5 24 14 c24 14
24 14 -6 8 -16 -3 -39 -8 -50 -12 -18 -4 -17 -2 5 21 27 28 213 155 219 150 2
-2 -20 -38 -49 -81z m-1080 44 c0 -2 -14 -16 -32 -33 l-31 -29 23 33 c20 27
40 42 40 29z m418 -47 c-29 -44 -37 -50 -68 -50 -30 0 -32 2 -20 14 25 25 105
85 113 85 4 1 -8 -21 -25 -49z m96 16 c-7 -18 -64 -52 -64 -39 0 9 63 63 68
59 1 -2 0 -11 -4 -20z m116 -45 c-17 -25 -29 -31 -57 -31 -20 0 -33 3 -30 7
12 12 102 61 106 58 2 -2 -7 -18 -19 -34z m-777 -1 c-9 -16 -25 -30 -35 -30
-25 0 -22 11 10 37 37 31 46 28 25 -7z m-98 1 c-3 -6 -11 -11 -17 -11 -6 0 -6
6 2 15 14 17 26 13 15 -4z m1363 -45 c-12 -25 -29 -46 -37 -46 -18 0 -48 17
-41 22 3 2 25 21 48 42 24 20 46 35 48 33 3 -3 -5 -25 -18 -51z m332 -3 c-13
-21 -34 -52 -46 -70 -22 -28 -26 -30 -60 -23 -41 10 -48 15 -39 29 8 14 158
111 163 106 3 -2 -6 -21 -18 -42z m-670 29 c0 -14 -23 -32 -42 -32 -25 0 -23
15 5 28 27 13 37 14 37 4z m-815 -12 c-3 -5 -11 -10 -16 -10 -6 0 -7 5 -4 10
3 6 11 10 16 10 6 0 7 -4 4 -10z m1733 -28 c-7 -10 -35 -46 -62 -81 -46 -57
-52 -61 -80 -55 -61 13 -63 20 -12 51 27 15 71 44 100 65 57 41 73 47 54 20z
m-1568 -27 c0 -19 -24 -30 -41 -19 -9 5 -7 11 6 21 24 17 35 17 35 -2z m150 7
c0 -16 -52 -34 -64 -22 -8 8 -7 13 4 20 19 12 60 13 60 2z m213 1 c-7 -2 -19
-2 -25 0 -7 3 -2 5 12 5 14 0 19 -2 13 -5z m168 -19 c10 -13 10 -17 -2 -25
-19 -12 -61 -7 -67 9 -2 6 7 16 20 21 32 13 34 13 49 -5z m79 6 c0 -5 -7 -7
-15 -4 -8 4 -15 8 -15 10 0 2 7 4 15 4 8 0 15 -4 15 -10z m-890 -20 c0 -11 -4
-20 -9 -20 -5 0 -11 9 -14 20 -3 13 0 20 9 20 8 0 14 -9 14 -20z m70 -14 c0
-19 3 -41 6 -50 3 -9 1 -16 -5 -16 -12 0 -23 23 -35 73 -5 23 -3 27 14 27 16
0 20 -7 20 -34z m510 24 c0 -5 -4 -10 -9 -10 -6 0 -13 5 -16 10 -3 6 1 10 9
10 9 0 16 -4 16 -10z m1294 -59 c-47 -61 -71 -73 -104 -51 -13 9 -13 11 0 20
8 5 44 29 79 54 36 25 66 44 69 42 2 -2 -18 -32 -44 -65z m-741 -43 c66 -89
73 -103 56 -106 -14 -3 -41 16 -82 55 -34 32 -81 75 -104 95 -24 21 -43 40
-43 42 0 7 31 14 66 15 28 1 38 -9 107 -101z m27 72 c6 -11 7 -20 2 -20 -5 0
-17 9 -27 20 -16 18 -16 20 -2 20 9 0 21 -9 27 -20z m-1027 -30 c-7 -27 -23
-15 -23 17 0 21 3 23 14 14 8 -7 12 -21 9 -31z m193 29 c3 -6 1 -16 -4 -21
-13 -13 -45 8 -36 23 7 12 31 11 40 -2z m172 -7 c4 -13 -42 -27 -57 -17 -18
10 -12 23 12 28 29 6 40 3 45 -11z m759 6 c14 -18 53 -138 45 -137 -8 0 -105
124 -110 139 -5 15 54 12 65 -2z m712 -57 c-55 -61 -74 -70 -111 -50 -18 10
-12 16 68 64 49 29 91 52 93 50 2 -2 -21 -31 -50 -64z m-596 39 c10 -9 198
-382 194 -386 -1 -2 -38 54 -82 124 -44 69 -103 156 -130 192 -74 95 -73 92
-28 84 21 -3 42 -10 46 -14z m692 -75 c-32 -36 -59 -65 -62 -65 -15 0 -75 32
-70 37 12 11 182 101 186 97 2 -2 -22 -33 -54 -69z m-1865 22 c0 -12 -4 -28
-9 -36 -15 -23 -31 -2 -31 40 0 37 2 39 20 29 11 -6 20 -21 20 -33z m720 -2
l44 -45 -28 0 c-37 0 -125 68 -104 81 25 16 44 9 88 -36z m560 19 c17 -43 11
-50 -15 -19 -29 35 -31 45 -10 45 9 0 20 -12 25 -26z m-1100 1 c20 -24 7 -26
-25 -5 -27 18 -28 20 -9 20 12 0 27 -7 34 -15z m1177 -3 c13 -8 96 -223 89
-230 -3 -2 -16 19 -31 48 -14 28 -44 80 -65 116 -22 35 -40 67 -40 69 0 8 34
6 47 -3z m722 -53 c-57 -61 -84 -97 -77 -104 3 -3 47 18 97 46 51 28 94 49 96
47 2 -2 -26 -33 -61 -71 -54 -57 -68 -66 -89 -61 -13 3 -29 12 -36 20 -6 8
-20 14 -31 14 -11 0 -31 9 -45 19 -23 19 -23 21 -6 31 128 77 198 117 200 116
2 -2 -20 -27 -48 -57z m-1714 41 c-3 -5 -17 -10 -31 -10 -13 0 -24 5 -24 10 0
6 14 10 31 10 17 0 28 -4 24 -10z m1099 -13 c26 -11 35 -29 77 -142 26 -72 41
-121 33 -110 -14 19 -152 226 -168 253 -9 16 19 15 58 -1z m-1408 -22 c8 -21
-6 -41 -17 -24 -12 19 -11 39 1 39 6 0 13 -7 16 -15z m1888 3 c-28 -48 -59
-78 -80 -78 -49 0 -37 23 35 67 42 25 55 28 45 11z m-380 -7 c17 -7 51 -89 42
-99 -4 -3 -48 58 -70 96 -8 13 -1 14 28 3z m-1133 -11 c10 -6 19 -15 19 -20 0
-13 -41 -13 -60 0 -13 9 -13 11 0 20 19 12 17 12 41 0z m-313 -34 c3 -12 -1
-17 -10 -14 -7 3 -15 13 -16 22 -3 12 1 17 10 14 7 -3 15 -13 16 -22z m1556
10 c31 -13 36 -22 71 -128 53 -159 120 -328 173 -433 25 -49 91 -197 147 -328
l103 -238 -21 -20 c-30 -27 -47 -24 -47 9 0 16 -11 56 -25 90 -13 33 -54 141
-89 240 -35 99 -83 226 -107 283 -51 127 -210 458 -238 498 -33 46 -26 52 33
27z m-863 -22 c11 -14 9 -15 -16 -12 -16 1 -30 9 -33 16 -6 18 33 15 49 -4z
m976 -14 c26 -10 31 -18 40 -68 6 -31 10 -58 8 -60 -2 -2 -76 113 -83 130 -5
10 -1 10 35 -2z m-1274 -27 c-7 -2 -21 -2 -30 0 -10 3 -4 5 12 5 17 0 24 -2
18 -5z m531 -15 c23 -33 9 -36 -22 -5 -21 21 -23 27 -10 27 9 0 24 -10 32 -22z
m848 -26 c14 -54 4 -57 -20 -7 -20 41 -21 46 -5 43 9 -2 20 -18 25 -36z m-997
-15 l30 -42 -43 33 c-42 34 -53 52 -29 52 6 0 25 -19 42 -43z m1209 -264 c43
-103 118 -278 167 -389 49 -110 89 -204 89 -207 0 -13 -35 -7 -69 11 -32 16
-37 26 -91 193 -65 196 -184 498 -239 604 -49 96 -49 97 12 33 48 -51 62 -78
131 -245z m-1509 261 c14 -9 25 -21 25 -26 0 -15 -52 1 -75 23 -19 19 -19 19
3 19 13 0 34 -7 47 -16z m1840 -7 c-16 -12 -49 -39 -71 -59 -45 -41 -57 -44
-94 -23 -25 14 -25 14 35 39 33 15 78 35 100 46 54 25 67 24 30 -3z m-165 -27
c-22 -31 -43 -37 -70 -20 -11 7 -5 13 30 29 60 27 65 26 40 -9z m-180 -10 c0
-4 3 -17 6 -27 5 -16 4 -16 -11 2 -9 11 -21 28 -26 38 -9 16 -8 17 10 7 12 -6
21 -15 21 -20z m85 -71 c9 -27 15 -52 13 -55 -5 -4 -68 108 -68 120 0 4 9 2
19 -4 11 -5 27 -33 36 -61z m295 30 c-56 -47 -87 -61 -110 -49 -11 6 -20 15
-20 20 0 7 131 58 155 59 6 0 -6 -13 -25 -30z m-223 -18 c16 -16 41 -107 31
-117 -2 -1 -20 29 -40 67 -37 69 -34 89 9 50z m77 -34 c12 -9 20 -31 22 -63
l5 -49 -21 40 c-44 82 -45 101 -6 72z m-1524 -27 c0 -5 -7 -7 -15 -4 -8 4 -15
8 -15 10 0 2 7 4 15 4 8 0 15 -4 15 -10z m1609 -15 c27 -13 29 -21 46 -130 9
-64 15 -118 12 -121 -3 -3 -8 9 -12 28 -4 18 -25 75 -46 127 -50 122 -50 122
0 96z m221 -15 c-45 -35 -78 -44 -106 -30 -13 8 -21 17 -17 21 10 9 88 27 123
28 l25 1 -25 -20z m-2860 -15 c31 -18 16 -18 -30 0 -23 9 -28 14 -15 14 11 0
31 -6 45 -14z m2965 -16 c-16 -11 -47 -29 -68 -40 -36 -19 -40 -19 -64 -4 -33
22 -22 30 62 48 96 20 105 20 70 -4z m-210 -33 c34 -157 45 -220 41 -224 -6
-5 -5 -7 -40 98 -14 41 -32 92 -40 112 -22 52 -21 60 9 46 14 -6 27 -21 30
-32z m335 2 c-14 -7 -51 -27 -84 -46 l-59 -35 -33 18 c-19 10 -34 21 -34 25 0
8 179 48 215 48 17 1 16 -1 -5 -10z m-286 -14 c16 -6 23 -54 8 -54 -4 0 -13
14 -19 30 -12 33 -12 33 11 24z m108 -104 c9 -60 28 -303 23 -308 -5 -5 -28
82 -60 223 -15 66 -29 131 -32 144 l-6 25 34 -20 c28 -16 35 -28 41 -64z m59
3 c27 -16 29 -21 29 -85 0 -37 -3 -68 -7 -68 -9 0 -64 170 -56 170 3 0 18 -8
34 -17z m-2792 1 l31 -6 1 -82 c1 -79 1 -80 14 -46 12 30 13 32 13 10 0 -14
-3 -34 -6 -46 -7 -21 -9 -20 -117 18 -93 32 -102 37 -62 33 35 -3 47 -1 45 8
-1 6 1 36 5 65 8 56 12 58 76 46z m2971 -33 c0 -18 -57 -33 -79 -21 -35 18
-24 30 29 30 28 0 50 -4 50 -9z m-86 -32 c28 -22 31 -41 19 -139 l-6 -54 -23
84 c-13 47 -26 95 -30 108 -8 28 5 28 40 1z m-2394 1 c13 -9 13 -10 0 -10 -8
0 -22 5 -30 10 -13 9 -13 10 0 10 8 0 22 -5 30 -10z m2635 -8 c-19 -16 -124
-53 -141 -50 -15 3 -17 -5 -15 -57 2 -33 0 -58 -3 -55 -3 3 -14 34 -25 68 -16
54 -17 62 -4 62 12 0 13 3 3 15 -10 12 0 15 72 18 45 1 92 4 103 5 10 1 15 -2
10 -6z m-1315 -195 c0 -5 -5 -5 -10 -2 -11 7 -90 158 -90 172 0 10 99 -160
100 -170z m-1223 131 c-3 -8 -6 -5 -6 6 -1 11 2 17 5 13 3 -3 4 -12 1 -19z
m-507 -28 l-8 -35 -1 31 c-1 17 2 34 6 37 11 12 12 3 3 -33z m3006 21 c-10
-16 -45 -19 -63 -5 -16 12 -13 13 25 14 24 0 41 -4 38 -9z m-2440 -9 c19 -12
27 -52 12 -52 -19 0 -38 21 -38 42 0 19 8 22 26 10z m2442 -24 c62 3 90 -14
39 -23 -19 -4 -40 -4 -46 0 -8 4 -11 -19 -11 -72 0 -145 20 -287 70 -502 28
-118 50 -221 50 -228 0 -20 -24 -16 -56 9 -15 12 -34 23 -42 24 -26 4 -35 22
-40 79 -5 67 12 75 28 13 17 -67 23 -77 28 -44 5 41 -14 263 -32 366 -8 47
-22 145 -31 218 -15 136 -20 156 -35 147 -4 -3 -11 2 -14 11 -11 30 -6 34 20
17 16 -10 43 -16 72 -15z m-2312 -75 c54 -40 82 -70 72 -78 -8 -7 -143 93
-146 108 -5 25 4 22 74 -30z m1088 -99 c5 -14 4 -15 -9 -4 -17 14 -19 20 -6
20 5 0 12 -7 15 -16z m804 -229 c25 -69 53 -188 46 -194 -15 -15 -39 40 -55
126 -10 54 -21 109 -24 123 -11 44 11 8 33 -55z m-78 -73 c0 -15 -2 -15 -10
-2 -13 20 -13 33 0 25 6 -3 10 -14 10 -23z m237 -94 c23 -56 41 -104 39 -106
-8 -7 -77 20 -81 32 -7 25 -15 189 -8 182 4 -3 26 -52 50 -108z m172 -110 c8
-63 5 -74 -16 -57 -9 8 -13 35 -12 88 0 60 2 71 10 52 5 -14 13 -51 18 -83z"/>
<path d="M3460 5170 c0 -23 33 -60 54 -60 14 -1 55 -39 126 -117 140 -155 222
-240 129 -133 -122 141 -272 301 -291 311 -12 7 -18 6 -18 -1z"/>
<path d="M3865 4740 c47 -55 48 -56 37 -35 -6 11 -23 31 -39 45 l-28 25 30
-35z"/>
</g>
</svg>
